<svg xmlns="http://www.w3.org/2000/svg" viewBox="0 0 380 380" role="img" aria-label="bottlebike">
  <circle cx="190" cy="190" r="170" fill="none" stroke="#1E6BA8" stroke-width="14" stroke-linecap="round" stroke-linejoin="round"/>
  <g transform="translate(83, 50) scale(2.4)">
    <path d="M 14 0 L 14 8 L 10 14 L 10 90 Q 10 96 16 96 L 36 96 Q 42 96 42 90 L 42 14 L 38 8 L 38 0 Z" fill="#1E6BA8"/>
    <rect x="18" y="-6" width="14" height="6" fill="#1E6BA8"/>
  </g>
  <g transform="translate(217, 50) scale(2.4)">
    <path d="M 14 0 L 14 8 L 10 14 L 10 90 Q 10 96 16 96 L 36 96 Q 42 96 42 90 L 42 14 L 38 8 L 38 0 Z" fill="none" stroke="#1E6BA8" stroke-width="6" stroke-linecap="round" stroke-linejoin="round"/>
    <rect x="18" y="-6" width="14" height="6" fill="#1E6BA8"/>
  </g>
</svg>
